<?xml version="1.0" standalone="no"?>
<!DOCTYPE svg PUBLIC "-//W3C//DTD SVG 20010904//EN"
 "http://www.w3.org/TR/2001/REC-SVG-20010904/DTD/svg10.dtd">
<svg version="1.0" xmlns="http://www.w3.org/2000/svg"
 width="100.000000pt" height="100.000000pt" viewBox="0 0 100.000000 100.000000"
 preserveAspectRatio="xMidYMid meet">
<metadata>
Created by potrace 1.14, written by Peter Selinger 2001-2017
</metadata>
<g transform="translate(0.000000,100.000000) scale(0.100000,-0.100000)"
fill="#000000" stroke="none">
<path d="M953 957 c3 -8 -8 -19 -25 -26 -21 -10 -28 -19 -25 -32 3 -10 2 -18
-2 -17 -3 0 -13 0 -21 -1 -13 -1 -13 -2 0 -12 12 -8 10 -9 -10 -7 -19 2 -24
-1 -22 -14 2 -10 -2 -18 -8 -18 -5 0 -10 -7 -10 -16 0 -13 -3 -14 -13 -5 -17
13 -28 5 -20 -15 4 -10 0 -12 -13 -7 -16 6 -17 4 -7 -9 14 -17 8 -29 -11 -22
-7 3 -19 -2 -26 -11 -9 -11 -9 -15 -1 -15 7 0 9 -5 6 -10 -4 -6 -11 -8 -16 -5
-5 4 -9 2 -9 -4 0 -5 -8 -8 -19 -6 -14 3 -17 -2 -15 -22 1 -14 0 -22 -3 -19
-3 3 -12 -2 -20 -12 -8 -9 -12 -11 -8 -5 4 8 1 11 -9 7 -8 -3 -17 -12 -20 -20
-4 -9 -2 -12 5 -8 7 4 7 -1 -1 -15 -9 -18 -14 -20 -26 -10 -11 9 -14 8 -15 -7
-1 -11 -1 -22 0 -26 0 -4 -7 -4 -17 -1 -14 6 -15 4 -5 -8 11 -13 9 -15 -10
-15 -13 1 -21 -4 -19 -12 1 -6 -1 -11 -5 -11 -20 3 -26 -2 -13 -11 13 -8 12
-10 -2 -10 -10 0 -18 -4 -18 -10 0 -5 -5 -10 -11 -10 -5 0 -7 5 -3 12 4 6 3 8
-4 4 -6 -3 -9 -15 -7 -26 2 -11 -1 -20 -6 -20 -6 0 -8 -4 -5 -9 4 -5 -5 -4
-18 2 -13 7 -22 15 -20 19 2 3 -4 9 -15 13 -10 3 -29 21 -42 40 -13 19 -32 38
-41 41 -10 3 -18 10 -18 15 0 6 6 7 13 3 6 -4 3 2 -7 14 -13 15 -23 19 -31 12
-14 -12 -26 -3 -19 15 3 7 1 16 -5 19 -6 4 -7 14 -4 24 6 16 6 16 -11 -1 -15
-15 -36 -16 -36 -1 0 3 5 2 10 -1 19 -12 10 7 -12 26 -17 14 -18 17 -5 13 9
-3 17 -2 17 4 0 11 -18 11 -38 -2 -8 -5 -12 -3 -10 6 2 7 -3 12 -11 10 -12 -3
-12 -1 0 14 8 10 9 15 3 11 -7 -4 -15 0 -18 9 -3 8 -10 13 -15 10 -13 -8 -29
16 -26 37 3 15 1 16 -13 5 -12 -10 -14 -10 -8 0 4 7 2 12 -4 12 -6 0 -8 5 -4
13 5 8 2 8 -9 -2 -15 -12 -17 -11 -17 13 0 18 -4 25 -12 20 -8 -5 -9 -2 -4 11
5 14 4 16 -7 7 -8 -7 -17 -9 -20 -6 -3 4 -6 -185 -7 -420 l0 -426 500 0 500 0
0 475 0 475 -26 0 c-17 0 -24 -4 -21 -13z m-13 -42 c-7 -8 -17 -15 -22 -15
-11 0 14 29 26 30 5 0 3 -7 -4 -15z"/>
<path d="M115 770 c3 -5 8 -10 11 -10 2 0 4 5 4 10 0 6 -5 10 -11 10 -5 0 -7
-4 -4 -10z"/>
<path d="M390 496 c0 -2 7 -7 16 -10 8 -3 12 -2 9 4 -6 10 -25 14 -25 6z"/>
</g>
</svg>
